<svg xmlns="http://www.w3.org/2000/svg" xmlns:xlink="http://www.w3.org/1999/xlink" width="500" zoomAndPan="magnify" viewBox="0 0 375 374.999991" height="500" preserveAspectRatio="xMidYMid meet" version="1.0"><defs><clipPath id="91f6990cdd"><path d="M 227 54.527344 L 254 54.527344 L 254 81 L 227 81 Z M 227 54.527344 " clip-rule="nonzero"/></clipPath><clipPath id="0917b14113"><path d="M 0 156 L 375 156 L 375 320.777344 L 0 320.777344 Z M 0 156 " clip-rule="nonzero"/></clipPath></defs><path fill="#ffffff" d="M 302.804688 102.085938 L 307.171875 72.132812 L 307.652344 72.132812 L 308.050781 74.632812 C 309.082031 81.308594 310.132812 87.988281 311.105469 94.644531 C 311.371094 96.402344 311.390625 98.195312 311.542969 99.988281 C 311.695312 101.78125 311.828125 102.105469 313.8125 102.375 L 341.097656 106.09375 C 341.492188 106.207031 341.878906 106.339844 342.261719 106.496094 C 341.34375 106.703125 340.847656 106.839844 340.351562 106.914062 C 333.625 107.945312 326.875 108.957031 320.109375 109.949219 C 317.933594 110.253906 315.742188 110.464844 313.566406 110.730469 C 311.808594 110.941406 311.789062 110.996094 311.542969 112.789062 C 310.269531 121.820312 309.039062 130.832031 307.839844 139.824219 C 307.800781 140.113281 307.667969 140.351562 307.441406 140.53125 C 306.335938 135.683594 305.703125 130.761719 304.960938 125.878906 C 304.214844 120.996094 303.566406 116.070312 302.882812 111.09375 L 273.328125 106.78125 C 276.398438 105.367188 279.71875 105.425781 282.867188 104.871094 C 286.015625 104.320312 289.449219 103.824219 292.730469 103.367188 C 296.011719 102.90625 299.390625 102.507812 302.804688 102.085938 Z M 302.804688 102.085938 " fill-opacity="1" fill-rule="nonzero"/><path fill="#ffffff" d="M 102.09375 179.375 L 103.714844 168.273438 L 103.886719 168.273438 C 103.886719 168.578125 103.886719 168.882812 104.039062 169.207031 C 104.421875 171.667969 104.800781 174.148438 105.164062 176.609375 C 105.257812 177.277344 105.277344 177.945312 105.335938 178.519531 C 105.394531 179.089844 105.335938 179.320312 106.175781 179.414062 L 116.289062 180.789062 L 116.726562 180.941406 L 116.019531 181.09375 L 108.503906 182.21875 C 107.703125 182.332031 106.898438 182.410156 106.078125 182.503906 C 105.257812 182.601562 105.410156 182.503906 105.335938 183.269531 L 103.960938 193.304688 C 103.9375 193.402344 103.882812 193.484375 103.808594 193.550781 C 103.390625 191.757812 103.160156 189.925781 102.894531 188.113281 C 102.625 186.300781 102.378906 184.546875 102.113281 182.640625 L 91.160156 181.035156 C 92.3125 180.652344 93.496094 180.410156 94.707031 180.3125 C 95.929688 180.082031 97.152344 179.929688 98.371094 179.757812 C 99.59375 179.585938 100.8125 179.53125 102.09375 179.375 Z M 102.09375 179.375 " fill-opacity="1" fill-rule="nonzero"/><g clip-path="url(#91f6990cdd)"><path fill="#ffffff" d="M 238.488281 65.914062 L 240.1875 54.808594 L 240.398438 54.808594 C 240.398438 55.113281 240.511719 55.4375 240.550781 55.742188 C 240.929688 58.222656 241.3125 60.683594 241.675781 63.164062 C 241.675781 63.816406 241.789062 64.480469 241.847656 65.074219 C 241.902344 65.664062 241.960938 65.855469 242.6875 65.953125 L 252.796875 67.324219 L 253.238281 67.476562 C 253.003906 67.539062 252.769531 67.589844 252.53125 67.628906 L 245.015625 68.757812 C 244.210938 68.871094 243.410156 68.945312 242.589844 69.042969 C 241.769531 69.136719 241.941406 69.15625 241.847656 69.824219 L 240.398438 79.917969 C 240.375 80.023438 240.324219 80.113281 240.246094 80.183594 C 239.824219 78.390625 239.613281 76.558594 239.328125 74.746094 C 239.042969 72.933594 238.8125 71.101562 238.566406 69.269531 L 227.59375 67.667969 C 228.746094 67.265625 229.929688 67.023438 231.144531 66.945312 C 232.363281 66.695312 233.585938 66.542969 234.804688 66.371094 C 236.027344 66.199219 237.285156 66.066406 238.488281 65.914062 Z M 238.488281 65.914062 " fill-opacity="1" fill-rule="nonzero"/></g><path fill="#ffffff" d="M 249.726562 101.417969 C 249.726562 102.105469 249.726562 102.773438 249.726562 103.421875 C 249.554688 107.085938 249.25 110.75 249.152344 114.414062 C 248.980469 120.898438 248.964844 127.367188 248.8125 133.835938 C 248.765625 135.074219 248.570312 136.289062 248.21875 137.480469 C 247.722656 139.253906 246.769531 139.941406 245.375 139.863281 C 245.019531 139.808594 244.683594 139.699219 244.363281 139.539062 C 244.042969 139.375 243.753906 139.164062 243.503906 138.90625 C 243.25 138.652344 243.042969 138.363281 242.882812 138.039062 C 242.726562 137.71875 242.621094 137.378906 242.570312 137.019531 C 242.523438 136.644531 242.523438 136.269531 242.570312 135.894531 C 242.554688 132.425781 241.996094 129.046875 240.894531 125.757812 C 239.796875 122.464844 238.210938 119.429688 236.140625 116.644531 C 234.507812 114.199219 232.601562 111.992188 230.417969 110.019531 C 228.234375 108.050781 225.84375 106.378906 223.246094 105.007812 C 220.097656 103.34375 216.785156 102.148438 213.304688 101.417969 C 208.570312 100.40625 203.789062 100.042969 198.957031 100.332031 C 195.3125 100.441406 191.757812 101.0625 188.292969 102.191406 C 184.828125 103.320312 181.589844 104.914062 178.582031 106.972656 C 177.019531 108.050781 175.582031 109.28125 174.273438 110.65625 C 172.964844 112.03125 171.808594 113.527344 170.804688 115.140625 C 169.800781 116.753906 168.972656 118.449219 168.320312 120.234375 C 167.667969 122.015625 167.199219 123.847656 166.921875 125.726562 C 166.492188 128.441406 166.398438 131.167969 166.644531 133.90625 C 166.890625 136.644531 167.46875 139.308594 168.375 141.90625 C 169.40625 144.582031 170.777344 147.066406 172.496094 149.363281 C 176.175781 154.5 180.441406 159.09375 185.296875 163.140625 L 186.652344 164.304688 C 186.515625 165.183594 185.90625 165.238281 185.277344 165.429688 C 180.449219 166.824219 151.355469 176.4375 150.039062 176.992188 C 149.085938 177.410156 148.128906 177.699219 146.929688 178.117188 C 146.335938 177.183594 145.726562 176.34375 145.230469 175.445312 C 143.007812 171.574219 141.203125 167.515625 139.8125 163.273438 C 138.675781 159.527344 137.867188 155.710938 137.390625 151.828125 C 136.789062 147.25 136.652344 142.65625 136.96875 138.050781 C 137.4375 131.480469 139.117188 125.234375 142.003906 119.316406 C 145.339844 112.675781 149.882812 107.003906 155.628906 102.296875 C 160.527344 98.175781 165.957031 94.953125 171.921875 92.625 C 175.222656 91.363281 178.582031 90.238281 181.957031 89.226562 C 184.308594 88.570312 186.695312 88.070312 189.113281 87.71875 C 195.667969 86.628906 202.269531 86.160156 208.917969 86.308594 C 214.203125 86.539062 219.503906 86.996094 224.789062 87.492188 C 228.394531 87.855469 231.984375 88.386719 235.550781 88.980469 C 239.683594 89.609375 243.742188 90.5625 247.722656 91.839844 C 249.632812 92.492188 250.832031 93.75 250.128906 96.839844 " fill-opacity="1" fill-rule="nonzero"/><g clip-path="url(#0917b14113)"><path fill="#ffffff" d="M 373.703125 185.789062 C 373.011719 183.519531 372.027344 181.390625 370.753906 179.390625 C 369.480469 177.390625 367.964844 175.601562 366.203125 174.015625 C 364.09375 172.066406 361.800781 170.367188 359.316406 168.921875 C 356.152344 167.089844 352.871094 165.5 349.472656 164.152344 C 346.28125 162.957031 343.03125 161.945312 339.722656 161.117188 C 337.453125 160.507812 335.105469 160.105469 332.796875 159.609375 C 330.890625 159.210938 328.980469 158.714844 326.957031 158.464844 C 323.792969 158.066406 320.625 157.835938 317.417969 157.550781 C 317.113281 157.550781 316.808594 157.4375 316.484375 157.417969 C 313.71875 157.246094 310.933594 157.054688 308.148438 156.902344 C 307.859375 156.902344 307.554688 157.074219 307.230469 157.09375 C 306.488281 157.128906 305.742188 157.128906 305 157.09375 C 303.953125 156.9375 302.90625 156.867188 301.851562 156.882812 C 299.796875 157.042969 297.742188 157.042969 295.6875 156.882812 C 288.054688 156.539062 280.558594 157.378906 273.003906 157.761719 C 272.4375 157.8125 271.878906 157.894531 271.324219 158.007812 L 268.175781 158.390625 C 265.3125 158.695312 262.453125 158.960938 259.609375 159.285156 C 257.703125 159.496094 255.90625 159.78125 254.058594 160.070312 C 251.652344 160.429688 249.25 160.851562 246.84375 161.234375 C 244.9375 161.539062 243.03125 161.726562 241.121094 162.089844 C 238.011719 162.683594 234.921875 163.371094 231.792969 164 C 228.664062 164.628906 226.070312 165.046875 223.167969 165.601562 C 221.890625 165.847656 220.632812 166.15625 219.351562 166.441406 L 211.339844 168.347656 C 209.105469 168.882812 206.875 169.4375 204.644531 170.027344 C 202.410156 170.621094 200.101562 171.25 197.8125 171.9375 C 195.523438 172.621094 193.460938 173.003906 191.304688 173.613281 C 188.5 174.398438 185.714844 175.273438 182.910156 176.113281 L 174.324219 178.632812 L 171.539062 179.453125 C 162.929688 181.808594 154.480469 184.65625 146.203125 188 C 144.847656 188.476562 143.492188 188.992188 142.160156 189.488281 C 141.984375 189.550781 141.824219 189.636719 141.679688 189.753906 L 138.6875 190.957031 L 138.417969 190.957031 L 133.058594 193.132812 C 133.066406 193.09375 133.066406 193.054688 133.058594 193.019531 C 131.664062 193.535156 130.425781 193.953125 129.242188 194.488281 L 115.734375 200.402344 C 108.75 203.378906 104.078125 205.535156 104.078125 205.535156 L 103.90625 205.707031 L 101.996094 206.546875 C 92.457031 210.933594 82.917969 215.761719 73.742188 220.894531 C 65.777344 225.320312 57.886719 229.867188 50.0625 234.535156 C 45.425781 237.28125 40.90625 240.257812 36.460938 243.328125 C 31.144531 246.992188 25.902344 250.765625 20.738281 254.644531 C 16.015625 258.265625 11.5625 262.195312 7.382812 266.433594 C 4.851562 269.003906 2.570312 271.777344 0.535156 274.753906 C 0.328125 275.117188 0.160156 275.5 0.0390625 275.898438 C 0.34375 275.898438 0.496094 275.898438 0.574219 275.898438 C 8.433594 270.824219 16.542969 266.167969 24.804688 261.816406 C 31.097656 258.496094 37.394531 255.214844 43.75 252.066406 C 50.101562 248.921875 56.226562 246.039062 62.503906 243.0625 C 66.527344 241.15625 70.59375 239.363281 74.617188 237.472656 L 100.089844 226.292969 L 104.25 224.382812 L 106.84375 223.449219 L 107.207031 223.316406 L 149.179688 207.746094 L 149.65625 207.59375 C 152.863281 206.5625 156.042969 205.566406 159.195312 204.597656 C 161.390625 203.929688 163.621094 203.417969 165.777344 202.691406 C 166.234375 202.484375 166.707031 202.425781 167.203125 202.515625 C 167.695312 202.605469 168.117188 202.832031 168.46875 203.1875 C 172.742188 206.8125 177.015625 210.417969 181.402344 213.910156 C 186.554688 218.03125 191.820312 222 197.011719 226.0625 C 202.179688 230.039062 206.898438 234.492188 211.167969 239.417969 C 214.941406 243.585938 217.992188 248.230469 220.324219 253.347656 C 221.320312 255.667969 222.132812 258.054688 222.769531 260.5 C 223.300781 262.65625 223.378906 264.910156 223.703125 267.121094 C 224.082031 269.898438 224.078125 272.671875 223.699219 275.449219 C 223.320312 278.226562 222.578125 280.898438 221.46875 283.472656 C 220.710938 285.292969 219.796875 287.03125 218.730469 288.691406 C 217.667969 290.351562 216.46875 291.90625 215.132812 293.355469 C 213.796875 294.808594 212.347656 296.132812 210.78125 297.332031 C 209.214844 298.527344 207.554688 299.582031 205.804688 300.492188 C 202.726562 302.152344 199.480469 303.386719 196.074219 304.191406 C 193.785156 304.746094 191.363281 304.765625 189.054688 305.261719 C 184.34375 306.253906 179.667969 305.453125 175.050781 304.878906 C 171.722656 304.332031 168.484375 303.449219 165.339844 302.226562 C 161.792969 300.960938 158.523438 299.1875 155.527344 296.910156 C 152.535156 294.628906 149.953125 291.949219 147.785156 288.871094 C 144.007812 283.460938 141.460938 277.523438 140.15625 271.050781 C 139.09375 267.0625 138.574219 263.007812 138.589844 258.878906 C 138.585938 258.316406 138.476562 257.777344 138.265625 257.257812 C 138.183594 256.976562 138.054688 256.714844 137.886719 256.476562 C 137.714844 256.234375 137.511719 256.03125 137.273438 255.855469 C 137.035156 255.683594 136.777344 255.554688 136.496094 255.46875 C 136.214844 255.382812 135.925781 255.339844 135.632812 255.351562 C 135.328125 255.335938 135.03125 255.371094 134.738281 255.453125 C 134.445312 255.539062 134.171875 255.664062 133.921875 255.835938 C 133.671875 256.007812 133.453125 256.21875 133.269531 256.460938 C 133.085938 256.703125 132.945312 256.96875 132.847656 257.257812 C 132.402344 258.152344 132.101562 259.09375 131.949219 260.082031 C 131.609375 262.789062 131.300781 265.519531 131.1875 268.246094 C 131.015625 272.539062 130.710938 276.832031 130.539062 281.105469 C 130.15625 289.617188 130.347656 298.164062 130.347656 306.691406 C 130.402344 307.246094 130.535156 307.78125 130.75 308.292969 C 131.195312 309.367188 131.855469 310.292969 132.726562 311.066406 C 133.59375 311.839844 134.589844 312.382812 135.710938 312.703125 C 137.921875 313.65625 140.175781 314.609375 142.445312 315.355469 C 144.945312 316.246094 147.492188 316.996094 150.078125 317.605469 C 153.109375 318.273438 156.199219 318.75 159.292969 319.132812 C 163.375 319.644531 167.476562 320.140625 171.578125 320.3125 C 176.328125 320.523438 181.117188 320.3125 185.851562 320.3125 C 187.167969 320.339844 188.484375 320.289062 189.800781 320.160156 C 192.636719 319.816406 195.476562 319.417969 198.328125 318.960938 C 200.980469 318.597656 203.609375 318.085938 206.207031 317.433594 C 209.585938 316.480469 212.921875 315.296875 216.183594 314.019531 C 224.457031 310.773438 231.75 306.03125 238.070312 299.785156 C 243.277344 294.6875 247.378906 288.820312 250.375 282.175781 C 252.191406 278.230469 253.464844 274.113281 254.191406 269.832031 C 254.742188 267.410156 255.15625 264.96875 255.429688 262.503906 C 256.125 254.132812 255.492188 245.867188 253.523438 237.703125 C 252.464844 233.195312 250.984375 228.832031 249.078125 224.613281 C 246.277344 219.035156 242.875 213.851562 238.871094 209.0625 C 234.789062 204.183594 230.390625 199.609375 225.667969 195.347656 C 224.121094 193.933594 222.632812 192.445312 221.109375 190.996094 C 221.109375 190.84375 221.242188 190.710938 221.296875 190.558594 C 224.046875 190.097656 226.792969 189.546875 229.539062 189.203125 C 233.949219 188.628906 238.355469 188.191406 242.742188 187.675781 L 243.507812 187.675781 C 246.519531 187.257812 249.535156 186.796875 252.570312 186.4375 C 255.164062 186.128906 257.796875 185.921875 260.410156 185.769531 C 264.644531 185.480469 268.882812 185.214844 273.136719 185.0625 C 276.683594 184.949219 280.253906 185.0625 283.800781 184.949219 C 290.898438 184.699219 297.9375 185.367188 305 185.75 C 305.375 185.757812 305.753906 185.796875 306.125 185.863281 L 313.46875 187.105469 C 315.246094 187.410156 317.058594 187.523438 318.792969 187.980469 C 321.8125 188.722656 324.78125 189.625 327.703125 190.691406 C 331.421875 191.921875 334.601562 193.980469 337.242188 196.871094 C 338.042969 197.777344 338.667969 198.792969 339.113281 199.917969 C 339.5625 201.039062 339.800781 202.207031 339.835938 203.417969 C 340.148438 207.234375 339.65625 210.949219 338.367188 214.558594 C 337.511719 216.941406 336.527344 219.269531 335.410156 221.542969 C 332.898438 226.058594 329.867188 230.191406 326.308594 233.941406 C 321.230469 239.351562 315.722656 244.28125 309.789062 248.730469 C 304.175781 252.964844 298.324219 256.835938 292.234375 260.347656 C 285.234375 264.335938 278.117188 268.113281 271.039062 271.988281 L 269.339844 272.902344 C 269.664062 273.167969 270.027344 273.238281 270.425781 273.113281 L 278.289062 269.8125 C 284.375 267.199219 290.535156 264.753906 296.527344 261.949219 C 303.816406 258.515625 311.007812 254.871094 318.144531 251.113281 C 326.472656 246.816406 334.460938 241.957031 342.109375 236.539062 C 345.636719 234.019531 349.203125 231.480469 352.523438 228.675781 C 356.289062 225.695312 359.738281 222.382812 362.867188 218.738281 C 365.039062 216.027344 367.425781 213.472656 369.332031 210.570312 C 371.492188 207.558594 372.941406 204.242188 373.683594 200.613281 C 374.046875 198.492188 374.734375 196.394531 374.921875 194.257812 C 375.078125 191.355469 374.671875 188.53125 373.703125 185.789062 Z M 373.703125 185.789062 " fill-opacity="1" fill-rule="nonzero"/></g></svg>